<svg id="Layer_1" data-name="Layer 1" xmlns="http://www.w3.org/2000/svg" xmlns:xlink="http://www.w3.org/1999/xlink" viewBox="0 0 600 600"><defs><style>.cls-1{fill:url(#linear-gradient);}.cls-2{fill:none;stroke:#fff;stroke-miterlimit:10;stroke-width:15px;}</style><linearGradient id="linear-gradient" x1="67.73" y1="174.57" x2="595.77" y2="459.72" gradientUnits="userSpaceOnUse"><stop offset="0" stop-color="#89253e"/><stop offset="1" stop-color="#3a6186"/></linearGradient></defs><title>Artboard 1</title><rect class="cls-1" width="600" height="600" rx="300"/><path class="cls-2" d="M284.2,166.85q-.75,132-1.51,264a31.22,31.22,0,0,1-1.29,5.22c-5.22,15.22-22.72,27.38-40.32,28.79-25,2-47.08-17.29-51.73-34.22a121,121,0,0,1,0-64.28,24.43,24.43,0,0,1,45.7-.2,65.28,65.28,0,0,1,3,10.22,67.9,67.9,0,0,1,.43,23.79"/><path class="cls-2" d="M315.8,433.15q.75-132,1.51-264a31.22,31.22,0,0,1,1.29-5.22c5.22-15.22,22.72-27.38,40.32-28.79,25-2,47.08,17.29,51.73,34.22a121,121,0,0,1,0,64.28,24.43,24.43,0,0,1-45.7.2,65.28,65.28,0,0,1-3-10.22,67.9,67.9,0,0,1-.43-23.79"/></svg>